<?xml version="1.0" standalone="no"?>
<!DOCTYPE svg PUBLIC "-//W3C//DTD SVG 20010904//EN"
 "http://www.w3.org/TR/2001/REC-SVG-20010904/DTD/svg10.dtd">
<svg version="1.0" xmlns="http://www.w3.org/2000/svg"
 width="2160.000000pt" height="2160.000000pt" viewBox="0 0 2160.000000 2160.000000"
 preserveAspectRatio="xMidYMid meet">

<g transform="translate(0.000000,2160.000000) scale(0.100000,-0.100000)"
fill="#000000" stroke="none">
<path d="M4238 18705 c-4 -4 -44 -11 -90 -15 -46 -5 -105 -14 -133 -20 -27 -6
-65 -14 -83 -17 -18 -3 -35 -9 -38 -14 -3 -5 -14 -9 -25 -9 -10 0 -27 -4 -37
-9 -9 -5 -28 -13 -42 -19 -115 -46 -239 -118 -355 -206 -40 -30 -195 -183
-227 -223 -71 -90 -170 -261 -210 -363 -6 -14 -14 -33 -19 -42 -5 -10 -9 -27
-9 -37 0 -11 -4 -22 -9 -25 -5 -3 -11 -20 -14 -38 -3 -18 -11 -55 -17 -83 -34
-154 -35 -204 -35 -2470 1 -2246 2 -2312 35 -2460 6 -27 14 -65 17 -83 3 -18
9 -35 14 -38 5 -3 9 -14 9 -25 0 -10 4 -27 9 -37 5 -9 13 -28 19 -42 40 -102
139 -273 210 -363 32 -40 187 -193 227 -223 113 -85 196 -134 330 -194 28 -12
58 -26 67 -31 10 -5 27 -9 37 -9 11 0 22 -4 25 -9 3 -5 20 -11 38 -14 18 -3
56 -11 83 -17 189 -42 420 -42 610 0 28 6 65 14 83 17 18 3 35 9 38 14 3 5 14
9 25 9 10 0 27 4 37 9 9 5 28 13 42 19 261 103 492 293 658 539 23 34 42 66
42 72 0 5 3 11 8 13 7 3 63 115 84 168 6 14 14 33 19 42 5 10 9 27 9 37 0 11
4 22 9 25 5 3 11 20 14 38 3 18 11 56 17 83 34 151 35 214 35 2465 0 2251 -1
2314 -35 2465 -6 28 -14 65 -17 83 -3 18 -9 35 -14 38 -5 3 -9 14 -9 25 0 10
-4 27 -9 37 -5 9 -13 28 -19 42 -40 102 -139 273 -210 363 -32 40 -187 193
-227 223 -110 84 -248 164 -355 206 -14 6 -33 14 -42 19 -10 5 -27 9 -37 9
-11 0 -22 4 -25 9 -3 5 -20 11 -38 14 -18 3 -55 11 -83 17 -103 24 -374 48
-387 35z"/>
<path d="M8558 18705 c-4 -4 -44 -11 -90 -15 -46 -5 -105 -14 -133 -20 -27 -6
-65 -14 -83 -17 -18 -3 -35 -9 -38 -14 -3 -5 -14 -9 -25 -9 -10 0 -27 -4 -37
-9 -9 -5 -28 -13 -42 -19 -115 -46 -239 -118 -355 -206 -40 -30 -195 -183
-227 -223 -71 -90 -170 -261 -210 -363 -6 -14 -14 -33 -19 -42 -5 -10 -9 -27
-9 -37 0 -11 -4 -22 -9 -25 -5 -3 -11 -20 -14 -38 -3 -18 -11 -55 -17 -83 -35
-158 -35 -152 -35 -4630 1 -4439 1 -4469 35 -4620 6 -27 14 -65 17 -83 3 -18
9 -35 14 -38 5 -3 9 -14 9 -25 0 -10 4 -27 9 -37 5 -9 13 -28 19 -42 40 -102
139 -273 210 -363 32 -40 187 -193 227 -223 113 -85 196 -134 330 -194 28 -12
58 -26 67 -31 10 -5 27 -9 37 -9 11 0 22 -4 25 -9 3 -5 20 -11 38 -14 18 -3
56 -11 83 -17 189 -42 420 -42 610 0 28 6 65 14 83 17 18 3 35 9 38 14 3 5 14
9 25 9 10 0 27 4 37 9 9 5 28 13 42 19 261 103 492 293 658 539 23 34 42 66
42 72 0 5 3 11 8 13 7 3 63 115 84 168 6 14 14 33 19 42 5 10 9 27 9 37 0 11
4 22 9 25 5 3 11 20 14 38 3 18 11 56 17 83 34 154 35 171 35 4625 0 4454 -1
4471 -35 4625 -6 28 -14 65 -17 83 -3 18 -9 35 -14 38 -5 3 -9 14 -9 25 0 10
-4 27 -9 37 -5 9 -13 28 -19 42 -40 102 -139 273 -210 363 -32 40 -187 193
-227 223 -110 84 -248 164 -355 206 -14 6 -33 14 -42 19 -10 5 -27 9 -37 9
-11 0 -22 4 -25 9 -3 5 -20 11 -38 14 -18 3 -55 11 -83 17 -103 24 -374 48
-387 35z"/>
<path d="M12878 18705 c-4 -4 -44 -11 -90 -15 -46 -5 -105 -14 -133 -20 -27
-6 -65 -14 -83 -17 -18 -3 -35 -9 -38 -14 -3 -5 -14 -9 -25 -9 -10 0 -27 -4
-37 -9 -9 -5 -39 -19 -67 -31 -128 -57 -223 -113 -330 -194 -40 -30 -195 -183
-227 -223 -71 -90 -170 -261 -210 -363 -6 -14 -14 -33 -19 -42 -5 -10 -9 -27
-9 -37 0 -11 -4 -23 -10 -26 -5 -3 -10 -19 -10 -34 0 -15 -4 -31 -9 -36 -5 -6
-12 -30 -15 -55 -4 -25 -12 -83 -18 -130 -20 -143 -11 -326 22 -475 6 -27 14
-65 17 -83 3 -18 9 -35 14 -38 5 -3 9 -14 9 -25 0 -10 4 -27 9 -37 5 -9 13
-28 19 -42 40 -102 139 -273 210 -363 32 -40 187 -193 227 -223 113 -85 196
-134 330 -194 28 -12 58 -26 67 -31 10 -5 27 -9 37 -9 11 0 22 -4 25 -9 3 -5
20 -11 38 -14 18 -3 56 -11 83 -17 189 -42 420 -42 610 0 28 6 65 14 83 17 18
3 35 9 38 14 3 5 14 9 25 9 10 0 27 4 37 9 9 5 28 13 42 19 261 103 492 293
658 539 23 34 42 66 42 72 0 5 3 11 8 13 7 3 63 115 84 168 6 14 14 33 19 42
5 10 9 27 9 37 0 11 4 22 9 25 5 3 11 20 14 38 3 18 11 56 17 83 42 189 42
421 0 610 -6 28 -14 65 -17 83 -3 18 -9 35 -14 38 -5 3 -9 14 -9 25 0 10 -4
27 -9 37 -5 9 -13 28 -19 42 -40 102 -139 273 -210 363 -32 40 -187 193 -227
223 -110 84 -248 164 -355 206 -14 6 -33 14 -42 19 -10 5 -27 9 -37 9 -11 0
-22 4 -25 9 -3 5 -20 11 -38 14 -18 3 -55 11 -83 17 -103 24 -374 48 -387 35z"/>
<path d="M17198 18705 c-4 -4 -44 -11 -90 -15 -46 -5 -105 -14 -133 -20 -27
-6 -65 -14 -83 -17 -18 -3 -35 -9 -38 -14 -3 -5 -14 -9 -25 -9 -10 0 -27 -4
-37 -9 -9 -5 -28 -13 -42 -19 -115 -46 -239 -118 -355 -206 -40 -30 -195 -183
-227 -223 -71 -90 -170 -261 -210 -363 -6 -14 -14 -33 -19 -42 -5 -10 -9 -27
-9 -37 0 -11 -4 -22 -9 -25 -5 -3 -11 -20 -14 -38 -3 -18 -11 -55 -17 -83 -35
-159 -35 -99 -35 -6790 1 -6633 1 -6628 35 -6780 6 -27 14 -65 17 -83 3 -18 9
-35 14 -38 5 -3 9 -14 9 -25 0 -10 4 -27 9 -37 5 -9 13 -28 19 -42 40 -102
139 -273 210 -363 32 -40 187 -193 227 -223 113 -85 196 -134 330 -194 28 -12
58 -26 67 -31 10 -5 27 -9 37 -9 11 0 22 -4 25 -9 3 -5 20 -11 38 -14 18 -3
56 -11 83 -17 189 -42 420 -42 610 0 28 6 65 14 83 17 18 3 35 9 38 14 3 5 14
9 25 9 10 0 27 4 37 9 9 5 28 13 42 19 261 103 492 293 658 539 23 34 42 66
42 72 0 5 3 11 8 13 7 3 63 115 84 168 6 14 14 33 19 42 5 10 9 27 9 37 0 11
4 22 9 25 5 3 11 20 14 38 3 18 11 56 17 83 35 155 35 126 35 6785 0 6659 0
6630 -35 6785 -6 28 -14 65 -17 83 -3 18 -9 35 -14 38 -5 3 -9 14 -9 25 0 10
-4 27 -9 37 -5 9 -13 28 -19 42 -40 102 -139 273 -210 363 -32 40 -187 193
-227 223 -110 84 -248 164 -355 206 -14 6 -33 14 -42 19 -10 5 -27 9 -37 9
-11 0 -22 4 -25 9 -3 5 -20 11 -38 14 -18 3 -55 11 -83 17 -103 24 -374 48
-387 35z"/>
<path d="M12878 14385 c-4 -4 -44 -11 -90 -15 -46 -5 -105 -14 -133 -20 -27
-6 -65 -14 -83 -17 -18 -3 -35 -9 -38 -14 -3 -5 -14 -9 -25 -9 -10 0 -27 -4
-37 -9 -9 -5 -28 -13 -42 -19 -115 -46 -239 -118 -355 -206 -40 -30 -195 -183
-227 -223 -71 -90 -170 -261 -210 -363 -6 -14 -14 -33 -19 -42 -5 -10 -9 -27
-9 -37 0 -11 -4 -22 -9 -25 -5 -3 -11 -20 -14 -38 -3 -18 -11 -55 -17 -83 -35
-158 -35 -152 -35 -4630 1 -4439 1 -4469 35 -4620 6 -27 14 -65 17 -83 3 -18
9 -35 14 -38 5 -3 9 -14 9 -25 0 -10 4 -27 9 -37 5 -9 13 -28 19 -42 40 -102
139 -273 210 -363 32 -40 187 -193 227 -223 113 -85 196 -134 330 -194 28 -12
58 -26 67 -31 10 -5 27 -9 37 -9 11 0 22 -4 25 -9 3 -5 20 -11 38 -14 18 -3
56 -11 83 -17 189 -42 420 -42 610 0 28 6 65 14 83 17 18 3 35 9 38 14 3 5 14
9 25 9 10 0 27 4 37 9 9 5 28 13 42 19 261 103 492 293 658 539 23 34 42 66
42 72 0 5 3 11 8 13 7 3 63 115 84 168 6 14 14 33 19 42 5 10 9 27 9 37 0 11
4 22 9 25 5 3 11 20 14 38 3 18 11 56 17 83 34 154 35 171 35 4625 0 4454 -1
4471 -35 4625 -6 28 -14 65 -17 83 -3 18 -9 35 -14 38 -5 3 -9 14 -9 25 0 10
-4 27 -9 37 -5 9 -13 28 -19 42 -40 102 -139 273 -210 363 -32 40 -187 193
-227 223 -110 84 -248 164 -355 206 -14 6 -33 14 -42 19 -10 5 -27 9 -37 9
-11 0 -22 4 -25 9 -3 5 -20 11 -38 14 -18 3 -55 11 -83 17 -103 24 -374 48
-387 35z"/>
<path d="M4238 10065 c-4 -4 -44 -11 -90 -15 -46 -5 -105 -14 -133 -20 -27 -6
-65 -14 -83 -17 -18 -3 -35 -9 -38 -14 -3 -5 -14 -9 -25 -9 -10 0 -27 -4 -37
-9 -9 -5 -28 -13 -42 -19 -115 -46 -239 -118 -355 -206 -40 -30 -195 -183
-227 -223 -71 -90 -170 -261 -210 -363 -6 -14 -14 -33 -19 -42 -5 -10 -9 -27
-9 -37 0 -11 -4 -22 -9 -25 -5 -3 -11 -20 -14 -38 -3 -18 -11 -55 -17 -83 -34
-154 -35 -204 -35 -2470 1 -2246 2 -2312 35 -2460 6 -27 14 -65 17 -83 3 -18
9 -35 14 -38 5 -3 9 -14 9 -25 0 -10 4 -27 9 -37 5 -9 13 -28 19 -42 40 -102
139 -273 210 -363 32 -40 187 -193 227 -223 113 -85 196 -134 330 -194 28 -12
58 -26 67 -31 10 -5 27 -9 37 -9 11 0 22 -4 25 -9 3 -5 20 -11 38 -14 18 -3
56 -11 83 -17 189 -42 420 -42 610 0 28 6 65 14 83 17 18 3 35 9 38 14 3 5 14
9 25 9 10 0 27 4 37 9 9 5 28 13 42 19 261 103 492 293 658 539 23 34 42 66
42 72 0 5 3 11 8 13 7 3 63 115 84 168 6 14 14 33 19 42 5 10 9 27 9 37 0 11
4 22 9 25 5 3 11 20 14 38 3 18 11 56 17 83 34 151 35 214 35 2465 0 2251 -1
2314 -35 2465 -6 28 -14 65 -17 83 -3 18 -9 35 -14 38 -5 3 -9 14 -9 25 0 10
-4 27 -9 37 -5 9 -13 28 -19 42 -40 102 -139 273 -210 363 -32 40 -187 193
-227 223 -110 84 -248 164 -355 206 -14 6 -33 14 -42 19 -10 5 -27 9 -37 9
-11 0 -22 4 -25 9 -3 5 -20 11 -38 14 -18 3 -55 11 -83 17 -103 24 -374 48
-387 35z"/>
<path d="M8558 5745 c-4 -4 -44 -11 -90 -15 -46 -5 -105 -14 -133 -20 -27 -6
-65 -14 -83 -17 -18 -3 -35 -9 -38 -14 -3 -5 -14 -9 -25 -9 -10 0 -27 -4 -37
-9 -9 -5 -39 -19 -67 -31 -128 -57 -223 -113 -330 -194 -40 -30 -195 -183
-227 -223 -71 -90 -170 -261 -210 -363 -6 -14 -14 -33 -19 -42 -5 -10 -9 -27
-9 -37 0 -11 -4 -23 -10 -26 -5 -3 -10 -19 -10 -34 0 -15 -4 -31 -9 -36 -5 -6
-12 -30 -15 -55 -4 -25 -12 -83 -18 -130 -20 -143 -11 -326 22 -475 6 -27 14
-65 17 -83 3 -18 9 -35 14 -38 5 -3 9 -14 9 -25 0 -10 4 -27 9 -37 5 -9 13
-28 19 -42 40 -102 139 -273 210 -363 32 -40 187 -193 227 -223 113 -85 196
-134 330 -194 28 -12 58 -26 67 -31 10 -5 27 -9 37 -9 11 0 22 -4 25 -9 3 -5
20 -11 38 -14 18 -3 56 -11 83 -17 189 -42 420 -42 610 0 28 6 65 14 83 17 18
3 35 9 38 14 3 5 14 9 25 9 10 0 27 4 37 9 9 5 28 13 42 19 261 103 492 293
658 539 23 34 42 66 42 72 0 5 3 11 8 13 7 3 63 115 84 168 6 14 14 33 19 42
5 10 9 27 9 37 0 11 4 22 9 25 5 3 11 20 14 38 3 18 11 56 17 83 18 79 34 223
34 305 0 82 -16 226 -34 305 -6 28 -14 65 -17 83 -3 18 -9 35 -14 38 -5 3 -9
14 -9 25 0 10 -4 27 -9 37 -5 9 -13 28 -19 42 -40 102 -139 273 -210 363 -32
40 -187 193 -227 223 -110 84 -248 164 -355 206 -14 6 -33 14 -42 19 -10 5
-27 9 -37 9 -11 0 -22 4 -25 9 -3 5 -20 11 -38 14 -18 3 -55 11 -83 17 -103
24 -374 48 -387 35z"/>
</g>
</svg>
