<?xml version="1.0" encoding="utf-8"?>
<!-- Generator: Adobe Illustrator 26.0.3, SVG Export Plug-In . SVG Version: 6.00 Build 0)  -->
<svg version="1.0" id="Layer_1" xmlns="http://www.w3.org/2000/svg" xmlns:xlink="http://www.w3.org/1999/xlink" x="0px" y="0px"
	 viewBox="57 13 200 200" style="enable-background:new 0 0 314 226;" xml:space="preserve">
<style type="text/css">
	.st0{fill:#4F2683;}
	.st1{fill:#FFFFFF;}
	.st2{fill:none;}
</style>
<path class="st0" d="M127.8,200.6c-5.7,0-6.6-4.4-6.6-11v-0.4h14.7c0-5.9-3.3-10-9.4-10c-6.7,0-10.3,5.2-10.3,11.4
	c0,6.5,3.4,11.4,10.3,11.4c4.2,0,7.7-1.6,9.5-6.3l-1-0.3C133.7,198.3,131.6,200.6,127.8,200.6z M121.3,186.9
	c0.2-3.3,1.4-6.5,4.9-6.5c3.7,0,4.5,2.9,4.6,5.9c0,0.3,0,1.3,0,1.6h-9.5C121.2,187.6,121.2,187.2,121.3,186.9z"/>
<path class="st0" d="M120.1,170.7v-1.1h-9v1.1h4l-1,3.6l-6.2,19.1h-0.1l-7-19.2l-1.2-3.5h4.5v-1.1H90.1v1.1h3.9l2.3,6.1l-5.8,16.6
	h-0.1l-6.9-19.1l-1.2-3.6h4v-1.1H73.5v1.1h3.1l1.6,4.3l9.9,27H89c0,0,6.1-17.4,8-23l8.5,23h1l9-27.3l1.4-4L120.1,170.7L120.1,170.7z
	"/>
<path class="st0" d="M147.9,200.8c-4.3,0-6.9-2.8-7.8-7h-1l1.4,7.9c0.4-0.5,1-0.8,1.7-0.8c1.2,0,2.8,1,5.6,1c4.5,0,7.9-2.5,7.9-6.8
	c0-8.6-12.3-6.3-12.3-11.8c0-1.8,1.3-3.1,3.5-3.1c3.6,0,5.6,2.5,6.4,5.5h1.1l-1.2-6.8c-0.4,0.5-1,0.7-1.6,0.7
	c-1.5,0-2.4-0.6-4.7-0.6c-3.9,0-6.9,2.1-6.9,6c0,7.8,12,6.2,12,11.8C152,199.6,150.2,200.8,147.9,200.8z"/>
<path class="st0" d="M213.3,182.3c0-1.8-1.3-3.1-3.7-3.1c-3.6,0-5.4,3.2-6.3,5.8h-0.1v-6c-0.9,0.8-2.1,1.3-3.4,1.2h-5v1.1h3.8v19.1
	h-3.8v1.1h12v-1.1h-3.6V191c0-5,2.5-10.5,5.6-10.5c0.2,0,0.4,0,0.5,0.1c-0.6,0.5-0.9,1.1-0.9,1.9c0,1.3,1,2.4,2.3,2.4
	c0,0,0.1,0,0.1,0c1.4,0,2.5-1.1,2.4-2.5C213.3,182.3,213.3,182.3,213.3,182.3z"/>
<path class="st0" d="M237,200.4v-14.9c0-4.4-2.2-6.3-6.5-6.3c-3.3-0.1-6.3,1.8-7.7,4.8h-0.1v-4.9c-0.9,0.8-2.1,1.2-3.4,1.1h-4.7v1.1
	h3.5v19.1h-3.8v1.1h11.8v-1.1h-3.5v-11.5c0-4.1,2.1-8.1,6.1-8.1c2.2,0,3.6,1.3,3.6,4.6v15H229v1.1h11.5v-1.1L237,200.4z"/>
<path class="st0" d="M168.2,200.2c-1.7,0-2.4-1.1-2.4-3.7v-15.3h5.4v-1.1h-5.4v-7.3h-0.9c-0.6,4.7-3,7.1-7.3,7.5v0.9h3.6v15.1
	c0,2.8,0.5,5.5,5.1,5.5c2.3,0.2,4.5-1,5.6-3.1l0.3-0.7l-1-0.4C170.7,199,169.8,200.2,168.2,200.2z"/>
<path class="st0" d="M193.2,195.7l-1-0.3c-1.2,2.9-3.3,5.3-7.1,5.3c-5.7,0-6.6-4.4-6.6-11v-0.4h14.7c0-5.9-3.3-10-9.4-10
	c-6.7,0-10.3,5.2-10.3,11.4c0,6.5,3.4,11.4,10.3,11.4C187.9,202,191.4,200.4,193.2,195.7z M178.5,186.9c0.2-3.3,1.4-6.5,4.9-6.5
	c3.7,0,4.5,2.9,4.6,5.9c0,0.3,0,1.3,0,1.6h-9.6C178.4,187.6,178.5,187.2,178.5,186.9L178.5,186.9z"/>
<path class="st1" d="M215.8,81.6v-50c-12.9-4.6-33.3-7.6-56.2-7.6c-22.5,0-42.5,2.9-55.4,7.5v50.7c0,7.5-0.3,20.7,6.5,36.6
	c8.4,19.7,24.8,34.5,48.1,43.8l1.2,0.5l1.2-0.5c23.3-9.3,39.7-24.1,48.1-43.8C216.1,103,215.8,88.7,215.8,81.6z"/>
<path class="st0" d="M215.8,81.6v-50c-12.9-4.6-33.3-7.6-56.2-7.6c-22.5,0-42.5,2.9-55.4,7.5v50.7c0,7.5-0.3,20.7,6.5,36.6
	c8.4,19.7,24.8,34.5,48.1,43.8l1.2,0.5l1.2-0.5c23.3-9.3,39.7-24.1,48.1-43.8C216.1,103,215.8,88.7,215.8,81.6z M172.2,136.3
	c-0.3,0.1-0.5,0.2-0.8,0.3c-0.2,0.1-0.2,0.1-0.3,0.2c0,0.1,0.1,0.2,0.1,0.3c-0.1,0.5-1.4,0.5-1.8,0.6c-0.4,0.2-0.7,0.4-1,0.8
	c-0.2,0.3-0.2,0.2-0.5,0.3c-0.7,0.1-0.5,0.8-0.3,1.3c0.2,0.5,0.6,0.9,1,1.2c0.4,0.2,0.8,0.3,1.3,0.4c-0.4,0.4-0.9,0.3-1.4,0.5
	c-0.3,0.1-0.5,0.2-0.8,0.3c-0.3,0.1-0.6,0.1-0.9,0c-0.4-0.1-0.9-0.1-1.3,0c-0.3,0-0.6,0-0.9-0.2c-0.2-0.1-0.3-0.2-0.5-0.3
	c-0.4-0.1-0.1,0.5,0,0.7c-0.5,0.5-1.7-0.2-2.2-0.5s-0.6-0.9-1.1-1c0,0.5,0,1,0,1.5c0.1,1.6,0.1,3.1,0.2,4.7c0,0.9,0,1.8,0.1,2.7
	h-1.7l0.2-9c-0.5,0-0.8,0.5-1.2,0.7c-0.3,0.1-0.6,0.1-0.8,0.2c-0.3,0.2-0.4,0.4-0.7,0.6c-0.3,0.1-0.6,0.2-0.9,0.1
	c-0.4,0-0.7-0.1-1-0.3c0.2-0.3,0.1-0.6-0.2-0.8c0,0,0,0,0,0c-0.3-0.1-0.6,0.1-0.9,0.1c-1.2,0.3-2.6-0.4-3.7-0.8c0,0,2.6-0.4,2.6-2
	c0-0.4-0.2-0.8-0.5-1c-0.4-0.3-0.8-0.5-1.3-0.6c-0.5,0-1,0-1.5-0.1c0-0.2-0.3-0.5-0.6-0.7c-0.3-0.2-0.6-0.3-0.9-0.4
	c-0.5-0.3-1.3-0.8-1.1-1.4c0.4,0.2,0.8,0.3,1.2,0.1c0.3-0.1,0.4-0.4,0.4-0.8c0-0.5-0.5-0.8-0.7-1.2c-0.1-0.3-0.3-0.6-0.6-0.8
	c-0.2-0.2-0.6-0.2-0.7-0.6c0.5,0.2,0.6-0.2,0.3-0.6c-0.3-0.3-0.8-0.6-1-1c-0.2-0.4-0.4-0.9-0.4-1.4c0-0.1,0-0.5,0.2-0.6
	s0.3,0.2,0.3,0.3c0.3,0.4,0.8,0.7,1.2,0.9c0.4,0.3,0.9,0.5,1.5,0.6c1,0.3,2,0,2.8-0.6c0.2-0.2,0.4-0.3,0.6-0.3c0.4,0.5,1,1,1.6,1.2
	c0.5,0.1,1,0.8,1.3,1c0.9,0.8,1.4,0.3,1.4-0.4c-0.1-0.7-0.2-1.3-0.4-2c-0.2-0.8-0.4-1.6-0.5-2.4c-0.1-0.5-0.3-1.1-0.6-1.5
	c-0.2-0.4-0.5-1.5,0.2-1.1c0.4,0.2,0.8,0.4,1.2,0.4c0.9-0.1,1-1.1,1.2-1.9c0.1-0.4,0.1-0.7,0.2-1.1c0.1-0.2,0.2-0.4,0.3-0.4
	s0.2,0.3,0.4,0.3c0.4,0,0.7-0.6,0.8-1s0.1-0.7,0.2-0.9c0.1-0.5,0.3-1.1,0.4-1.6c0.1,0.3,0.3,1,0.3,1.2c0.2,0.6,0.4,1.1,0.7,1.6
	c0.2,0.4,0.7,0.5,1,0.3c0,0,0,0,0.1,0c0.2,0.5,0.2,2.3,0.7,3.1c0.2,0.4,0.6,0.7,1,0.7c0.3,0,0.6-0.1,0.9-0.3
	c0.3-0.2,0.6-0.4,0.9-0.4c0.1,0,0.2,0,0.2,0.2c-0.2,0.5-0.4,1.1-0.6,1.6c-0.2,0.5-0.5,1-0.6,1.5c-0.1,0.5-0.2,0.9-0.3,1.3
	c-0.1,0.6-0.2,1.2-0.2,1.7c0,0.4,0,1.2,0.3,1.4c0.5,0.3,1.1-0.3,1.5-0.6c0.5-0.3,0.9-0.7,1.2-1.2c0.3-0.4,0.8-1.3,1.3-1.2
	c0,0.4,0.5,0.9,1.3,1c0.4,0.1,0.8,0,1.1-0.2c0.4-0.3,0.4-0.3,0.8-0.1c0.9,0.3,2.4-0.8,2.9-1.2c0.2,0.2,0,0.5-0.2,0.9
	c-0.4,0.6-0.9,0.8-0.9,1.3c0,0.5-0.5,1.2-0.5,1.7c-0.3,0.3-0.5,0.5-0.9,0.8c-0.7,0.4-1,1.3-0.8,2.1c0.2,0.7,0.7,1.1,1.4,1.1
	c0.6,0,1-0.4,1.2-0.3c0.2,0.1-0.2,0.4-0.3,0.5C173,135.9,172.6,136.1,172.2,136.3z M205.5,65.5h-91l-5.8-6.1l11.6,3.9
	c-1-2.9-3.6-3.9-5.3-6.4c-0.9-1.3-1.4-2.8-1.2-4.4c0.4,0.7,1,1.4,1.8,1.9c1.1,0.7,2.3,1.1,3.6,1.4c2,0.3,3.9,1.2,5.4,2.6l-6-10.6
	l10.2,6.6c-0.4-3-2.5-4.6-3.6-7.4c-0.6-1.5-0.6-3.1-0.1-4.6c0.2,0.8,0.7,1.6,1.2,2.3c0.9,0.9,1.9,1.7,3.1,2.2c1.9,0.8,3.5,2.2,4.7,4
	l-3.2-12l8.2,8.9c0.3-3-1.3-5-1.6-8c-0.2-1.6,0.1-3.2,1-4.5c0,0.9,0.3,1.7,0.7,2.5c0.6,1.1,1.4,2.1,2.4,2.9c1.7,1.3,3,3.1,3.6,5.2
	l-0.1-12.5l5.7,10.6c1.1-2.7-0.1-5.2,0.4-8.1c0.2-1.6,1-3,2.1-4.1c-0.2,0.8-0.2,1.7,0,2.6c0.3,1.2,0.9,2.4,1.6,3.4
	c1.3,1.7,2.1,3.8,2.2,6l0,0l3-12.3l2.9,11.8c1.8-2.4,1.3-5.2,2.5-7.9c0.6-1.5,1.7-2.6,3.1-3.3c-0.4,0.8-0.6,1.6-0.7,2.5
	c0,1.3,0.2,2.5,0.7,3.7c0.8,2,1.1,4.1,0.6,6.2l5.9-11L175,45.1c2.3-1.8,2.5-4.7,4.3-7c1-1.3,2.3-2.1,3.9-2.5c-0.6,0.6-1,1.4-1.3,2.2
	c-0.3,1.2-0.4,2.5-0.2,3.8c0.3,2.2,0,4.4-1,6.3l0,0l8.6-9.3l-3.1,11.6c2.6-1.2,3.5-3.7,5.8-5.5c1.2-1,2.7-1.6,4.3-1.6
	c-0.7,0.5-1.3,1.1-1.8,1.8c-0.6,1.1-1,2.3-1.1,3.6c-0.2,2.2-1.1,4.2-2.5,5.8l0,0l10.6-6.8l-5.8,10.5c2.9-0.4,4.2-2.7,6.9-3.9
	c1.4-0.7,3.1-0.9,4.6-0.5c-0.8,0.3-1.6,0.8-2.2,1.4c-0.9,0.9-1.5,2-2,3.2c-0.7,2-2.1,3.8-3.9,5l0.1,0.1l12-4L205.5,65.5z
	 M158.3,91.2c-0.2-0.3-0.8-1.7-4.3-1.7h-10.2V73.1h0.8v15.7h9.3c0.6,0,1.2,0,1.8,0.1c1.2,0.1,2.3,0.7,3,1.6h2.4
	c0.7-0.9,1.8-1.5,3-1.6c0.6-0.1,1.2-0.1,1.8-0.1h9.3V73.1h0.8v16.4h-10.2c-3.5,0-4.1,1.4-4.2,1.7L158.3,91.2z M159.5,88.4v0.8
	c-1.4-2.7-7.9-2.2-13.4-1.7V72.3c3,0,5.9-0.4,8.2-0.4c2.9,0,4.9,0.4,5.2,2.1v13.7c-1.8-2.1-7-1.9-12.5-1.4v0.4
	C152.5,86.2,158.2,86.1,159.5,88.4z M148,82.4h1.9c0.7,0,1.3,0,1.9,0v-0.3h-0.3c-0.9,0-1-0.1-1-0.7v-2.7c0-0.7,0.1-0.8,0.7-0.8h0.6
	v-0.3c-0.6,0-1.2,0-1.9,0c-0.6,0-1.2,0-1.9,0V78h0.6c0.6,0,0.7,0,0.7,0.8v2.7c0,0.6-0.1,0.7-1,0.7H148V82.4L148,82.4z M154.6,79.2
	c-0.7-0.4-1.2-1.1-1.2-1.8c0-1.1,1-2,2.1-1.9c0,0,0,0,0,0c0.9-0.1,1.7,0.5,1.9,1.4c0,0.1,0,0.1,0,0.2c0,0.8-0.3,1.2-1.3,1.7
	c1,0.5,1.5,1.1,1.5,1.9c0,1.1-0.9,2-2,2c-0.1,0-0.2,0-0.3,0c-1,0.1-1.9-0.7-2-1.7c0,0,0,0,0,0C153.2,80.1,153.8,79.4,154.6,79.2
	L154.6,79.2z M156.4,81.1c0-0.6-0.3-1-1.5-1.8c-0.5,0.3-0.8,0.8-0.8,1.4c-0.1,0.7,0.5,1.4,1.2,1.4c0,0,0,0,0,0
	c0.6,0.1,1.1-0.4,1.1-1C156.4,81.2,156.4,81.1,156.4,81.1L156.4,81.1z M155.7,78.5c0.5-0.3,0.8-0.9,0.8-1.4c0.1-0.6-0.4-1.2-1.1-1.3
	c0,0,0,0-0.1,0c-0.6,0-1.1,0.5-1.1,1.1c0,0,0,0,0,0.1C154.4,77.5,154.8,78,155.7,78.5L155.7,78.5z M165.6,71.8
	c2.3,0,5.2,0.4,8.2,0.4v15.3c-5.5-0.6-12-1-13.4,1.7v-0.8c1.3-2.4,7.1-2.2,12.6-1.7v-0.4c-5.5-0.5-10.8-0.8-12.6,1.4V74
	C160.7,72.3,162.7,71.8,165.6,71.8L165.6,71.8z M162,79.4h0.3l0.2-0.7h2.9l-2.8,5.7l0.5,0.1l3.5-6.8l-0.1-0.1h-4.3L162,79.4z
	 M168.9,79.2c-0.7-0.4-1.2-1.1-1.2-1.8c0-1.1,1-2,2.1-1.9c0,0,0,0,0,0c0.9-0.1,1.7,0.5,1.8,1.4c0,0.1,0,0.1,0,0.2
	c0,0.8-0.3,1.2-1.3,1.7c1,0.5,1.5,1.1,1.5,1.9c0,1.1-0.9,2-2,2c-0.1,0-0.2,0-0.3,0c-1,0.1-1.9-0.7-2-1.7c0,0,0,0,0-0.1
	C167.5,80.1,168.1,79.4,168.9,79.2L168.9,79.2z M170.7,81.1c0-0.6-0.3-1-1.5-1.8c-0.5,0.3-0.8,0.8-0.8,1.4c-0.1,0.7,0.5,1.4,1.2,1.4
	c0,0,0,0,0,0C170.2,82.2,170.7,81.7,170.7,81.1C170.7,81.1,170.7,81.1,170.7,81.1L170.7,81.1z M170,78.5c0.5-0.3,0.8-0.9,0.8-1.4
	c0.1-0.6-0.4-1.2-1.1-1.3c0,0,0,0-0.1,0c-0.6,0-1.1,0.5-1.1,1.1c0,0,0,0,0,0.1C168.7,77.5,169.1,78,170,78.5z M194,135.1l-34-27.8
	l-34,27.8c-17.6-20.4-17.4-43.9-17.4-53.7v-16h0.1l51.3,41.9l51.4-41.9h0.1v16C211.4,91.2,211.6,114.7,194,135.1z M130.2,120.2
	c7.3,0.1,13.3-5.8,13.3-13.1s-5.8-13.3-13.1-13.3c-7.3-0.1-13.3,5.8-13.3,13.1c0,0,0,0.1,0,0.1C117.1,114.2,122.9,120.1,130.2,120.2
	z M138.7,101.5c0,0.4-0.1,0.9-0.3,1.2c-0.3,0-0.5,0.1-0.8,0.1c-0.2,0-0.2,0-0.3,0.2c-0.3,0.6-0.6,1.1-1,1.7
	c-0.1,0.8-0.1,1.5-0.1,2.4c0,0.4,0,0.8-0.2,1.1c-0.2,0.3-0.5,0.6-0.9,0.8c-0.1,0-0.1,0.1,0.1,0.1s0.7-0.3,0.9-0.4
	c0.4-0.1,0.9-0.7,1.6,0c0.4,0.4,0.9,0.7,1.4,1c0.2,0.1,0.4,0.2,0.6,0.4c0.2,0.2,0.4,0.7,0.5,0.9c0.2,0.3,0.4,0.7,0.4,1.2
	c-0.5,0.1-1,0.1-1.4,0c-0.1-0.2-0.1-0.5-0.2-0.7c-0.1-0.2-0.2-0.4-0.4-0.6c-0.3-0.2-0.5-0.4-0.7-0.6c-0.7-0.4-0.7-0.5-1.2-0.2
	c-0.5,0.2-1.1,0.8-1.9,1.2c-0.9,0.2-1.8,0.1-2.6-0.4c0.1,0.4,1,0.9,1.7,1.2c-0.2,0.7-0.4,1.5-0.8,2.1c0-0.2-0.1-0.3-0.3-0.3
	c-0.4,0-0.4,1-0.8,1.4c0-0.2-0.1-0.3-0.3-0.3c-0.4,0-0.4,0.9-0.8,1.3c0-0.2-0.2-0.3-0.3-0.3s-0.4,0.2-0.5,0.3
	c-0.6,0.6-0.8,1-1.4,1.5c-2-0.2-3.9-1.1-5.4-2.5c1.3-1.5,2.6-2.9,4-4.2c0.4-1.1,1.4-3.3,1.8-4.4c0-0.1-0.1-0.2-0.2-0.3
	c-0.2,0.1-0.5,0.2-0.7,0.1c0.1-0.4,0.1-0.8,0-1.1c-0.2,0.1-0.4,0.2-0.7,0.1c0.1-0.4,0.1-0.7,0-1.1l0,0c-0.2,0.1-0.4,0.1-0.7,0.1
	c0.2-0.4,0.2-0.8,0.1-1.2c0,0,0-0.1,0-0.1c-0.5,0.2-1.1,0.3-1.7,0.3c-0.2-0.1,0.8-1.1,1.6-2c-1.1,0.5-2.2,0.8-3.3,1
	c-1.3,0.3-2.7,0.4-4,0.3c-0.1,0-0.1-0.1-0.1-0.2c0-0.1,0.1-0.1,0.1-0.1c0.8,0,1.6-0.1,2.3-0.2c0.2,0,0.5-0.2-0.1-0.3
	c-0.7-0.1-1.4-0.3-2.1-0.4c-0.2-0.1-0.1-0.3,0.1-0.3c0.6,0,1.4,0.2,1.9,0.2c0.3,0,0.4,0,0.2-0.2s-0.6-0.4-1-0.7
	c-0.1,0-0.1-0.1-0.1-0.1c0,0,0-0.1,0.1-0.1c0.3-0.1,1.8,0.8,2.7,1.1c0.2,0.1,0.4,0.1,0.6,0.1c0.2,0,0.2-0.1,0.2-0.2
	c0-0.2-1-0.7-1.4-1c-0.2-0.1,0-0.3,0.2-0.2c0.7,0.3,1.4,0.6,2.2,0.8c0.4,0,0.6-0.1,0.5-0.2c0-0.3-1.6-1-2-1.3
	c-0.1-0.1,0-0.2,0.1-0.2c0.8,0.1,2.4,1.2,3.1,1.1c0.1,0,0.2-0.1,0.2-0.2c-0.1-0.3-1.4-1-1.7-1.2c-0.2-0.1,0-0.2,0.3-0.2
	c0.6,0.2,1.1,0.4,1.7,0.7c0.2,0.1,0.4,0.1,0.6,0.1c0.3-0.1,0.5-0.3,0.4-1c-0.1-0.5-0.6-0.9-1.1-1c-0.5-0.1-0.1-0.3,0.3-0.3
	c0.7,0.1,1.2,0.6,1.3,1.3c0,0.1,0,0.3,0,0.4c0,0.4,0.3,0.2,0.5-0.1c0.4-0.4,0.6-1,0.5-1.6c-0.1-0.7-1.1-1-1.1-1.1s0.1-0.1,0.1-0.1
	c0.7,0,1.3,0.5,1.5,1.2c0,0.4,0,0.7-0.1,1.1c0,0.1,0,0.2,0.2,0c0.6-0.6,0.8-1.4,0.8-2.2c-0.1-0.8-1-1.1-1-1.3s0.1-0.1,0.1-0.1
	c0.7,0.1,1.3,0.7,1.5,1.5c0.2,0.8-0.2,2.6-2.8,3.9c1.1-0.2,1.4-0.2,1.5-0.1c0.8-0.3,1.6-0.5,2.4-0.5c0.3,0.5-0.4,0.7-0.4,1.1
	s0.9-0.3,0.7,0.3s-0.6,0.5-1,0.7c-0.2,0.1-1,0.7-1.4,1c0.9,0.7,1.8,1.4,2.6,2.2c0.1,0.2,0.4,0.7,0.7,1.6l0,0
	c0.2-0.5,0.5-1.4,0.6-1.9c0-0.3,0.1-0.5,0.2-0.7c0.1-0.2,0.4-0.5,0.8-1s0.7-1,0.9-1.3c0.3-0.4,0.5-0.3,1-0.4
	C138.1,101.5,138.4,101.5,138.7,101.5z M129,101.6c0.1-0.1,0.2-0.1,0.3-0.2c0.2-0.1,0.4-0.2,0.7-0.2c0.1,0.2,0,0.4-0.1,0.5
	c-0.2,0.2-0.3,0.1-0.5,0c-0.1,0-0.2,0-0.3,0C129,101.7,129,101.7,129,101.6C128.9,101.6,129,101.6,129,101.6z M176.5,107
	c0.1-7.3,6-13.1,13.2-13c7.3,0.1,13.1,6,13,13.2c-0.1,7.2-5.9,13-13.1,13C182.3,120.2,176.5,114.3,176.5,107z M195.7,98
	c0.1,0.1,0.1,0.2,0.1,0.3c0,0.3-0.3,0.6-0.6,0.6s-0.6-0.3-0.6-0.6c0,0,0,0,0,0c0-0.3,0.2-0.5,0.5-0.6l-0.7-1.1l-1.2,0.5
	c0.1,0.1,0.2,0.3,0.2,0.4c0,0.3-0.2,0.6-0.6,0.6c0,0,0,0,0,0c-0.3,0-0.6-0.2-0.6-0.6c0-0.3,0.1-0.5,0.4-0.6
	c-0.5-0.5-1.1-0.9-1.8-1.2c0.5,1,0.8,2.1,0.8,3.3c1.3,0.1,2.5,0.5,3.5,1.2c0.6-1,1.5-1.7,2.6-2.2C197.1,98,196.4,97.9,195.7,98z
	 M192,100.6c-0.1,0-0.2,0-0.3,0c-0.1,0-0.1,0-0.1-0.1c-0.1-0.1-0.2-0.1-0.3-0.1c-0.3,0-0.5,0.1-0.5,0.4c0,0.1,0,0.2,0.1,0.3
	c0.1,0.1,0.2,0.1,0.3,0.1c0.1,0,0.1,0,0.2,0l0,0c0.1-0.1,0.2-0.2,0.3-0.3c0.1-0.1,0.2-0.1,0.4-0.1c0,0,0,0,0.1,0L192,100.6z
	 M188.4,100.8c0,0.1,0,0.2,0,0.3c0,0,0.1,0.1,0.1,0.1c-0.1,0.3-0.1,0.5,0,0.8c0.1,0.2,0.2,0.3,0.6,0.3c0,0.1,0,0.2,0,0.2l0,0
	c-0.2,0.1-0.4,0.1-0.6,0.1c-0.6,0-0.9-0.3-0.8-0.9c0-0.1,0-0.2,0.1-0.3c0,0,0-0.1,0-0.1s-0.8,0.4-0.8,1c-0.1,0.4,0.1,0.8,0.5,1
	c0.1,0,0.2,0,0.2,0c0.4,0,0.7,0,1.1-0.2c0.6-0.3,1.4-0.3,1.9,0.1c-0.5-0.1-1-0.1-1.5,0c-0.4,0.1-0.6,0.9-0.1,0.9s1.6,0,1.6,0
	c-0.3,0.7-0.9,1.2-1.7,1.4c-0.8-0.2-1.7-0.2-2.5,0c-0.7-0.9-1.2-1.9-1.4-3c0-0.3,0-0.5,0.1-0.8c0.2-0.4,0.8-0.4,1-0.8
	c0.1-0.2,0.1-0.5,0.1-0.7c0-0.1,0.2-0.4,0-0.6c-0.1,0.2-0.3,0.2-0.5,0.2c-0.2-0.1-0.3-0.1-0.5,0c-0.3,0.1-0.3,0.5-0.6,0.7
	s-0.3,0.1-0.2-0.1c0.1-0.3,0.2-0.6,0.2-0.9c-0.1-0.3-0.3-0.6-0.6-0.8c-0.1-0.1-0.3-0.2-0.5-0.3c-0.2,0-0.3,0-0.3,0.1
	c0.1,0.1,0.1,0.2,0.1,0.3c0,0.3-0.3,0.4-0.3,0.7s0.3,0.8,0.3,1s-0.1,0.2-0.2,0.1c-0.3-0.2-0.6-0.3-0.9-0.3c-0.3,0-0.4,0.2-0.6,0.3
	s-0.5,0-0.4,0.2c0.2,0,0.4,0.2,0.5,0.4c0,0.2,0.1,0.3,0.2,0.4c0.2,0.2,0.8,0.1,1,0.2c0.2,0,0.4,0.2,0.4,0.5c0,0.2,0,0.5-0.2,0.7
	c-0.2,0.3-0.3,0.7-0.2,1.1c0.1-0.1,0.2-0.2,0.3-0.2c0.2,0,0.3,0.2,0.1,0.6c-0.2,0.3-0.2,0.7-0.1,1.1c0.1-0.1,0.2-0.2,0.3-0.2
	c0.2,0,0.3,0.2,0.2,0.6c-0.1,0.3-0.1,0.7,0,1c0-0.1,0.2-0.2,0.3-0.2c0.2,0,0.3,0.2,0.4,0.4c0.2,0.6,0.6,0.9,1.6,0.9
	c-0.3,0.7-3.2,0.2-4.3,0.1c-0.2,0-0.4-0.1-0.5-0.3c-0.2-0.5,0.2-0.8,0-1.3c-0.1-0.2-0.3-0.3-0.5-0.4s-0.4-0.4-0.5-0.2
	c0.1,0.2,0,0.4-0.1,0.5c-0.2,0.1-0.3,0.2-0.3,0.4c0,0.3,0.2,0.6,0.3,0.9c0.1,0.3,0,0.3-0.2,0.2s-0.7-0.7-1.1-0.7s-0.4,0.2-0.6,0.3
	s-0.6,0.1-0.5,0.3c0.2,0,0.4,0.2,0.4,0.4c0,0.2,0.1,0.3,0.2,0.5c0.4,0.3,1,0.2,1.3,0.2c0.1,0,0.2,0.2,0,0.2
	c-0.3,0.2-0.7,0.3-0.9,0.6c-0.1,0.2-0.1,0.5-0.1,0.8c0,0.1-0.1,0.4,0.1,0.5c0.1-0.2,0.3-0.3,0.6-0.2c0.2,0,0.3,0.1,0.5,0
	s0.3-0.4,0.5-0.7c0.1-0.2,0.2-0.3,0.4-0.3c0.1,0,0.3,0,0.4,0.1c0.2,0.2,0.2,0.7,0.9,0.8c0-0.1-0.1-0.2-0.1-0.2
	c0-0.1,0.1-0.2,0.2-0.2c0,0,0,0,0,0c0.2,0,0.3,0.1,0.4,0.3c0.1,0.3,0.4,0.4,0.7,0.4c0-0.1-0.1-0.2-0.1-0.3c0-0.1,0.1-0.2,0.2-0.2
	c0,0,0,0,0,0c0.2,0,0.3,0.1,0.4,0.2c0.2,0.3,0.3,0.5,0.7,0.5c-0.1-0.1,0-0.3,0.1-0.4c0,0,0.1,0,0.1,0c0.5,0.1,1,0.2,1.4,0.4
	c0.1,1.4,0.8,2.7,2.1,3.5c-0.1-0.2,0.1-0.4,0.3-0.4c0.5,0,0.8,1.2,1.9,1.7c-0.1-0.2,0.1-0.4,0.2-0.4c0.1,0,0.3,0.1,0.4,0.1
	c0.9,0.5,1.8,1,2.6,1.7c1.5-0.5,2.8-1.4,3.9-2.5c-1.2-0.6-2.3-1.4-3.2-2.3c-0.9-0.9-1.5-2.2-1.5-3.5c0-0.3,0-0.6,0.1-0.8
	c0.4,0.2,0.8,0.2,1.1-0.1c-0.4-0.4-0.5-1-0.3-1.6c0.4,0.2,0.8,0.2,1.1-0.1c-0.5-0.4-0.6-1-0.4-1.5c0.3,0.3,0.8,0.3,1.1,0
	c-0.5-0.4-0.7-1-0.5-1.6c0.2,0.3,0.6,0.3,0.9,0.2c-0.1-0.4-0.2-0.9-0.2-1.4c-0.1-0.5-0.2-1-0.4-1.5c-1.1-0.7-2.3-1.2-3.6-1.2
	c-0.1,0-0.3,0-0.4,0c-0.2,0-0.4,0.1-0.6,0.2c-0.2,0.3-0.6,0.3-1,0.4C189.2,100.4,188.8,100.6,188.4,100.8L188.4,100.8z M190.2,109.7
	h-0.1c-0.1,0.8-0.4,1.6-0.8,2.4l0.5-0.4l0.3,0.4l0.3-0.4l0.5,0.4C190.6,111.3,190.3,110.5,190.2,109.7L190.2,109.7z M198.9,113.4
	c0.1-0.2,0.2-0.4,0.2-0.4c-0.5-0.7-0.8-1.6-0.8-2.5c0.1-1,0.6-1.3,1.1-1.3c0.4,0,0.7,0.4,0.7,0.8c0.3-0.2,0.5-0.6,0.5-1
	c0-0.4-0.2-0.7-0.6-0.8c0.8-0.7,0.8-2,0-2.7c0,0-0.1-0.1-0.1-0.1c0.1,1.1-0.7,1.8-1.4,2.5c-0.8,0.8-1.2,2-0.9,3.1
	c-0.5-1-0.8-2.1-0.8-3.2c0.1-1.2,0.7-2.3,1.5-2.3c0.3,0,0.5,0.2,0.7,0.4c0.4-0.7,0.1-1.4-0.5-1.5c0.5-1.3,0-2.9-1.3-3.5
	c0.2,0.5,0.3,1,0.3,1.5c-0.1,1.5-1.4,2.8-1.6,5c-0.1,2.5,1.2,4.6,2.7,6.2C198.7,113.8,198.8,113.6,198.9,113.4L198.9,113.4z
	 M193.2,113H193c-0.1,0.8-0.4,1.6-0.8,2.4l0.5-0.4l0.3,0.4l0.3-0.4l0.5,0.4C193.5,114.7,193.2,113.9,193.2,113L193.2,113z
	 M190.9,103c0.1-0.1,0.1-0.3,0.1-0.5c0-0.1,0-0.2-0.1-0.3c-0.2-0.1-0.4-0.2-0.6-0.1c-0.2,0-0.4,0-0.6,0.1c0,0.1-0.1,0.2-0.1,0.2
	C190.1,102.5,190.5,102.7,190.9,103L190.9,103z"/>
<rect x="57" y="13" class="st2" width="200" height="200"/>
</svg>
